# xmcd
#
# Track frame offsets:
#	150
#	17678
#	32127
#	44556
#	58097
#	72515
#	84757
#	100804
#	116631
#	132228
#	148379
#	165351
#	179279
#	197385
#	212819
#	226258
#	240419
#	254171
#	270610
#	284310
#	298309
#
# Disc length: 4177 seconds
#
# Revision: 0
# Processed by: cddbd v1.5.1PL0 Copyright (c) Steve Scherf et al.
# Submitted via: EasyCDDAExtractor 8.2.4.1
#
DISCID=3d104f15
DTITLE=Various Artist - Mega Hits 2
DYEAR=2005
DGENRE=Pop
TTITLE0=Arsenium - Love Me ...Love Me...
TTITLE1=Dj Bobo  - Pirates Of Dence
TTITLE2=Cabin Crew - Star To Fall
TTITLE3=DJ Mendez - Is That OK?
TTITLE4=Heiko and Maiko - Glucklich
TTITLE5=Global Deejays - What A Feeling
TTITLE6=Dam Sweet  - I Don`t Know
TTITLE7=Daniel Hoppe Feat. Paul Kind   - Love And Pride
TTITLE8=B-RD Wish Feat. Baby Bash - Obsesion 
TTITLE9=Aventura - La Guerra
TTITLE10=Despina Vandi - I Belive It
TTITLE11=Paris Avenue Feat. Robin One - I Want It
TTITLE12=MC Keven Feat. Bill - The Whistle Song
TTITLE13=DJ Deekline Pres. Cut and Run - Outta Space
TTITLE14=Busface Feat. Mademoiselle E.B.  - Circles
TTITLE15=Narcotic Thrust - When The Dawn Breaks
TTITLE16=100 Percent Feat. Jennifer John - Just Can`t  Wait 
TTITLE17=Thomas Della Plata Feat Nat - Get It On
TTITLE18=P_DJ Feat. Sonya - Go Go
TTITLE19=Solaphonics - Give Me Some Love
TTITLE20=Deepest Blue - Shooting Star
EXTD=
EXTT0=
EXTT1=
EXTT2=
EXTT3=
EXTT4=
EXTT5=
EXTT6=
EXTT7=
EXTT8=
EXTT9=
EXTT10=
EXTT11=
EXTT12=
EXTT13=
EXTT14=
EXTT15=
EXTT16=
EXTT17=
EXTT18=
EXTT19=
EXTT20=
PLAYORDER=
